<svg aria-hidden="true" style="position:absolute;width:0;height:0;overflow:hidden" xmlns="http://www.w3.org/2000/svg"><defs><symbol id="icon-github" viewBox="0 0 32 32"><path d="M32 16c0 8.837-7.163 16-16 16S0 24.837 0 16 7.163 0 16 0s16 7.163 16 16z"/><path fill="#fff" style="fill:var(--color2, #fff)" d="M16 6.588c-5.17 0-9.412 4.242-9.412 9.412 0 4.411 3.096 8.419 7.206 9.412v-3.113a2.314 2.314 0 0 1-1.196-.031c-.556-.164-1.008-.535-1.344-1.099-.214-.36-.593-.753-.988-.724l-.097-1.098c.856-.073 1.594.521 2.033 1.258.196.328.421.52.709.605.278.083.577.043.925-.08.088-.697.408-.958.649-1.327-2.452-.365-3.429-1.666-3.816-2.692-.514-1.364-.238-3.066.67-4.143.018-.021.05-.075.038-.113-.417-1.259.09-2.3.109-2.41.481.141.559-.143 2.089.786l.264.159c.111.066.075.028.186.019a7.787 7.787 0 0 1 1.97-.276h.006a8.021 8.021 0 0 1 2.002.284l.086.009c-.008-.002.024-.006.075-.037 1.911-1.158 1.842-.779 2.355-.946.019.111.519 1.169.106 2.411-.056.171 1.656 1.739.708 4.256-.388 1.026-1.365 2.328-3.816 2.693.314.48.692.734.69 1.722v3.886c4.109-.993 7.206-5 7.206-9.412 0-5.17-4.242-9.412-9.412-9.412z"/></symbol><symbol id="icon-arrow-up2" viewBox="0 0 32 32"><path d="m27.414 12.586-10-10a2 2 0 0 0-2.828 0l-10 10a2 2 0 1 0 2.828 2.828L14 8.828V28a2 2 0 1 0 4 0V8.828l6.586 6.586c.39.39.902.586 1.414.586s1.024-.195 1.414-.586a2 2 0 0 0 0-2.828z"/></symbol><symbol id="icon-telegram" viewBox="0 0 32 32"><path d="M32 16c0 8.837-7.163 16-16 16S0 24.837 0 16 7.163 0 16 0s16 7.163 16 16z"/><path fill="#fff" style="fill:var(--color2, #fff)" d="m12.867 18.376-.317 4.169c.455 0 .651-.183.888-.401l2.13-1.901 4.414 3.018c.81.421 1.381.199 1.6-.696l2.897-12.673c.258-1.117-.433-1.554-1.221-1.28L6.226 14.698c-1.162.422-1.145 1.026-.198 1.301l4.355 1.264 10.114-5.907c.476-.295.909-.132.553.163l-8.182 6.856z"/></symbol><symbol id="icon-facebook" viewBox="0 0 32 32"><path d="M16 32c8.837 0 16-7.163 16-16S24.837 0 16 0 0 7.163 0 16s7.163 16 16 16z"/><path fill="#fff" style="fill:var(--color2, #fff)" d="M20.446 15.981h-2.611V25.6H13.88v-9.619H12v-3.379h1.88v-2.187c0-1.564.739-4.014 3.991-4.014l2.929.012v3.281h-2.125c-.348 0-.839.176-.839.922v1.989h2.955l-.345 3.377z"/></symbol><symbol id="icon-logo" viewBox="0 0 127 32"><path fill="#fff" style="fill:var(--color2, #fff)" d="M31.36 16.32C31.36 24.98 24.483 32 16 32S.64 24.98.64 16.32 7.517.64 16 .64s15.36 7.02 15.36 15.68z"/><path fill="#d41443" style="fill:var(--color3, #d41443)" d="M11.849.562C4.443 2.805 0 8.635 0 16.004c0 6.023 3.091 11.277 8.179 13.904 2.64 1.346 3.027.384.58-1.474-1.739-1.41-2.061-2.05-2.061-4.421 0-1.666-.386-3.011-.966-3.524-1.159-.961-1.288-3.46-.129-4.357.451-.384.902-1.666.966-2.819.322-4.229 4.894-8.201 9.467-8.201s9.145 3.973 9.466 8.201c.064 1.153.515 2.435.966 2.819 1.159.897 1.03 3.396-.129 4.357-.58.513-.966 1.858-.966 3.524 0 2.371-.322 3.011-2.061 4.421-2.705 2.114-1.932 2.883 1.095 1.025 4.25-2.627 7.406-8.33 7.406-13.391C31.813 5.944 21.252-2.257 11.85.562z"/><path fill="#d41443" style="fill:var(--color3, #d41443)" d="M12.686 7.994c-1.159.513-2.125 1.153-2.125 1.538 0 .705 3.477 1.986 5.474 1.986s5.474-1.281 5.474-1.986c0-.769-3.993-2.499-5.603-2.499-.644.064-2.125.449-3.22.961zm33.165 3.332c-.966.256-1.159 1.089-1.159 5.703v5.382h4.572l-.193-5.574c-.193-5.831-.451-6.279-3.22-5.51zm7.535.32c-2.125 1.153-2.898 2.563-2.898 5.318 0 3.78 2.061 5.574 5.86 5.318 2.576-.192 2.833-.384 3.027-1.986s.064-1.73-1.932-1.602c-2.061.192-2.125.064-2.125-2.05s.129-2.243 1.996-2.05c1.546.128 2.125-.128 2.383-1.089.129-.641 0-1.538-.386-1.922-.902-.897-4.25-.897-5.925.064zm7.663.064c-.193.513-.258 3.011-.129 5.638l.193 4.741h4.186c3.864 0 4.186-.128 4.379-1.474.193-1.217-.064-1.41-2.06-1.41-1.288 0-2.319-.32-2.319-.641 0-.384.902-.641 1.932-.641 1.481 0 1.932-.256 1.932-1.281s-.451-1.281-1.932-1.281c-1.03 0-1.932-.32-1.932-.641 0-.384.837-.641 1.868-.641 1.804 0 3.027-1.41 2.254-2.627-.58-.961-7.985-.705-8.372.256zm12.944-.192c-2.125.833-2.962 2.307-3.027 4.998-.065 4.613 1.803 6.215 6.633 5.767 1.868-.128 2.189-.448 2.189-1.794 0-1.41-.257-1.602-2.061-1.41-1.546.128-2.125-.064-2.447-1.089-.58-1.986.644-3.588 2.705-3.588 1.224 0 1.868-.384 1.996-1.217.451-2.05-2.833-3.011-5.989-1.666zm7.921-.256c-.323.256-.515 2.883-.515 5.831v5.382l2.06-.192c1.61-.128 2.19-.577 2.512-1.794l.386-1.602.515 1.73c.387 1.474.837 1.794 2.512 1.794 2.769 0 3.091-.448 1.932-2.691-.708-1.41-.837-2.114-.322-2.627.837-.833.902-3.652.129-4.87-.644-1.025-8.371-1.858-9.208-.961zm5.28 3.46c0 .705-.257 1.281-.644 1.281-.322 0-.644-.577-.644-1.281s.322-1.281.644-1.281c.387 0 .644.577.644 1.281zm6.247-3.396c-.258.192-.451 2.819-.451 5.767v5.318h4.186c4.057 0 4.186-.064 4.186-1.602 0-1.346-.322-1.602-1.932-1.602-1.03 0-1.932-.32-1.932-.641 0-.384.708-.641 1.61-.641 1.159 0 1.61-.32 1.61-1.281s-.451-1.281-1.61-1.281c-.902 0-1.61-.32-1.61-.641 0-.384.902-.641 1.932-.641 1.61 0 1.932-.256 1.932-1.602 0-1.538-.193-1.602-3.735-1.602-2.061 0-3.992.192-4.186.448zm13.009-.064c-1.16.32-4.122 8.842-3.542 10.252.515 1.281 3.413 1.153 4.186-.192.579-1.089.644-1.089 1.803 0 1.482 1.281 4.701 1.474 4.701.256 0-.384-.644-2.947-1.482-5.574-1.288-4.229-1.674-4.806-3.027-4.934-.902 0-2.061.064-2.64.192zm1.803 5.831c-.193.641-.322.256-.322-.769 0-1.089.129-1.538.322-1.153.129.448.129 1.346 0 1.922zm7.47-5.767c-.58.192-.837 1.986-.837 5.703v5.382h1.868c1.61 0 1.932-.32 2.189-1.794.257-1.666.257-1.666.772-.32.258.833.902 1.474 1.352 1.474.515 0 1.224-.641 1.546-1.474.515-1.346.58-1.346.58.384.065 1.602.257 1.794 2.061 1.602l1.996-.192.065-5.318c.129-4.934.064-5.318-1.288-5.638-2.061-.513-3.799.705-4.379 3.076l-.451 2.114-.708-2.243c-.902-3.011-2.254-3.78-4.765-2.755zm-106.707.641c-.193.256-.386 1.089-.386 1.922 0 1.474.064 1.474 7.406 1.474s7.406 0 7.406-1.474c0-2.178-.58-2.435-2.64-1.41-2.318 1.217-7.213 1.217-9.531 0-1.03-.513-1.996-.705-2.254-.513zm-1.868 5.702c-1.03 1.089.708 1.538 5.731 1.538h5.409v2.243c0 1.217.322 2.243.644 2.243.386 0 .644-.961.644-2.178 0-2.114.129-2.243 2.576-2.435 1.417-.128 2.576-.513 2.576-.833 0-.705-16.872-1.281-17.581-.577z"/><path fill="#d41443" style="fill:var(--color3, #d41443)" d="M8.629 23.308c0 3.524 1.224 4.229 7.406 4.229s7.406-.705 7.406-4.229c0-1.538-.322-2.178-.966-2.178-.58 0-.966.577-.966 1.538 0 3.588-4.894 3.908-5.603.384-.322-1.858-.515-1.922-3.8-1.922H8.629v2.178zm3.993 7.24c.386 2.05 6.955 1.858 6.955-.128 0-.705-.837-.961-3.606-.961-3.027 0-3.542.192-3.349 1.089z"/></symbol><symbol id="icon-close" viewBox="0 0 32 32"><path fill="none" stroke="#fff" style="stroke:var(--color1, #fff)" stroke-width="2" d="m2.52 2 26.96 28M2 29.48 30 2.52"/></symbol><symbol id="icon-burger" viewBox="0 0 46 32"><path fill="none" stroke-width="2.286" d="M0 2.286h45.714M0 16h45.714M0 29.714h45.714"/></symbol><symbol id="icon-further" viewBox="0 0 19 32"><path fill="none" stroke-linejoin="round" stroke-linecap="round" stroke-width="6.4" d="M3.2 3.2 16 16 3.2 28.8"/></symbol><symbol id="icon-arrow-right" viewBox="0 0 32 32"><path d="M0 0h32v32H0V0z"/></symbol><symbol id="icon-more" viewBox="0 0 22 32"><path fill="none" stroke="#fff" style="stroke:var(--color1, #fff)" stroke-linejoin="round" stroke-linecap="round" stroke-width="6.4" d="M4.49 3.2 18.186 16 4.49 28.8"/></symbol><symbol id="icon-more1" viewBox="0 0 22 32"><path fill="none" stroke="#D41443" style="stroke:var(--color1, #D41443)" stroke-linejoin="round" stroke-linecap="round" stroke-width="6.4" d="M4.49 3.2 18.186 16 4.49 28.8"/></symbol><symbol id="icon-menu-close" viewBox="0 0 32 32"><path d="M23.734 10.304 22.23 8.8l-5.963 5.962L10.305 8.8l-1.504 1.504 5.962 5.962-5.962 5.963 1.504 1.504 5.962-5.963 5.963 5.963 1.504-1.504-5.963-5.963 5.963-5.962z"/></symbol><symbol id="icon-email" viewBox="0 0 32 32"><path d="M26.667 5.333H5.334A2.663 2.663 0 0 0 2.681 8l-.013 16c0 1.467 1.2 2.667 2.667 2.667h21.333c1.467 0 2.667-1.2 2.667-2.667V8c0-1.467-1.2-2.667-2.667-2.667zM26.133 11l-9.427 5.893a1.346 1.346 0 0 1-1.413 0L5.866 11a1.132 1.132 0 1 1 1.2-1.92l8.933 5.587 8.933-5.587a1.132 1.132 0 1 1 1.2 1.92z"/></symbol><symbol id="icon-phone" viewBox="0 0 32 32"><path d="m24.882 19.774-3.268-.373a2.561 2.561 0 0 0-2.11.733l-2.367 2.367a19.357 19.357 0 0 1-8.478-8.478l2.38-2.38a2.561 2.561 0 0 0 .733-2.11l-.373-3.242a2.575 2.575 0 0 0-2.56-2.277H6.613c-1.454 0-2.663 1.209-2.573 2.663.682 10.987 9.469 19.761 20.443 20.443 1.454.09 2.663-1.119 2.663-2.573v-2.226a2.55 2.55 0 0 0-2.264-2.547z"/></symbol><symbol id="icon-person" viewBox="0 0 32 32"><path d="M16 16c2.947 0 5.333-2.387 5.333-5.333S18.946 5.334 16 5.334c-2.947 0-5.333 2.387-5.333 5.333S13.054 16 16 16zm0 2.667c-3.56 0-10.667 1.787-10.667 5.333v1.333c0 .733.6 1.333 1.333 1.333h18.667c.733 0 1.333-.6 1.333-1.333V24c0-3.547-7.107-5.333-10.667-5.333z"/></symbol><symbol id="icon-sky" viewBox="0 0 57 32"><path d="M53.844 10.911a3.976 3.976 0 0 0-.244.218 1.496 1.496 0 0 1-.524.276c-.027.004-.08-.031-.116-.08-.04-.053-.071-.071-.093-.04-.018.036-.058.036-.124-.004a.439.439 0 0 0-.218-.04c-.071.004-.156-.018-.191-.058-.062-.062-.08-.058-.156.018-.093.093-.356.124-.356.044 0-.027-.022-.044-.049-.044-.022 0-.031.022-.013.053.031.049.018.049-.244-.036-.058-.018-.089 0-.102.062-.018.067-.076.098-.231.12-.111.018-.204.049-.204.071s-.031.04-.067.04c-.04 0-.08.027-.093.058-.009.031-.062.062-.116.062-.053.004-.107.031-.124.058-.018.031-.049.053-.071.053s-.084.018-.142.04c-.133.049-.262.049-.293 0-.031-.044-.249-.009-.324.053-.04.027-.058.027-.058-.009 0-.031-.04-.04-.107-.022-.058.013-.12.004-.133-.022-.031-.049-.68-.062-.756-.013-.08.049-.213.058-.182.009.018-.027-.009-.031-.076-.004a.967.967 0 0 1-.298.022c-.196-.009-.276.031-.324.164-.027.071-.213.124-.347.093-.04-.004-.093-.071-.124-.142-.053-.116-.071-.129-.156-.084-.053.031-.084.036-.067.018.044-.049-.049-.156-.133-.156-.036 0-.053.013-.04.031.058.053-.12.142-.2.098-.049-.027-.08-.027-.08-.004 0 .027-.04.053-.084.067-.107.027-.347-.173-.369-.302-.009-.049-.036-.084-.058-.08-.027.004-.062-.022-.08-.058-.044-.08-.298-.08-.458.004s-.24.084-.24.004c0-.036-.058-.084-.133-.111-.098-.031-.133-.031-.133.009s-.009.04-.036 0c-.053-.084-.396-.116-.427-.036a.106.106 0 0 1-.093.067c-.036 0-.067.031-.067.067s-.031.067-.067.067c-.036 0-.067.018-.067.044 0 .022-.027.031-.062.018s-.076 0-.093.027c-.018.027-.089.036-.169.022-.124-.022-.169 0-.373.2-.173.173-.271.231-.387.244-.124.009-.151 0-.147-.067 0-.044.027-.071.058-.058.058.022.16-.329.102-.364-.018-.013-.027-.053-.013-.084.018-.04-.022-.071-.111-.093-.076-.018-.138-.044-.138-.067 0-.089-.218-.062-.444.053-.133.067-.253.102-.267.076-.018-.022-.076-.04-.138-.036a.954.954 0 0 1-.24-.027c-.102-.022-.16-.009-.24.062-.124.107-.204.12-.169.031s-.058-.16-.2-.16c-.093 0-.142.031-.178.111-.027.062-.076.111-.111.111-.031 0-.058.018-.058.036 0 .044-.453.276-.542.276-.036 0-.116.049-.173.107-.111.107-.484.2-.484.116 0-.022-.022-.044-.049-.044-.022 0-.031.018-.018.044.036.062.022.058-.173-.044-.151-.076-.178-.076-.236-.022a.328.328 0 0 1-.084.067c-.04 0-.151-.124-.151-.169 0-.058-.173-.098-.204-.049a.05.05 0 0 1-.067.018c-.022-.018-.04-.004-.04.018 0 .027-.044.049-.102.049a.42.42 0 0 0-.187.058c-.049.036-.196.067-.324.071s-.289.04-.356.076a.651.651 0 0 1-.196.062c-.08 0-.187.147-.142.191.031.031-.16.138-.258.147-.062.004-.071-.018-.053-.093.031-.133-.062-.187-.138-.084-.031.049-.04.089-.018.098s.04.036.04.062c0 .031-.018.031-.058 0-.031-.027-.098-.04-.151-.027-.076.022-.098 0-.124-.111-.013-.076-.044-.133-.058-.129-.058.018-.364-.151-.364-.204 0-.027-.022-.018-.044.018-.027.04-.044.049-.044.013 0-.031-.027-.044-.062-.031s-.076.004-.093-.022c-.013-.027-.004-.049.027-.049.027 0 .004-.04-.053-.089-.093-.071-.111-.076-.156-.018-.044.053-.058.044-.084-.058a.472.472 0 0 1-.031-.16c.004-.018-.04-.031-.102-.031-.08 0-.124.031-.16.116-.04.116-.044.116-.107.036a.47.47 0 0 1-.067-.249c0-.187-.093-.204-.222-.036-.044.058-.124.098-.191.098s-.142.031-.169.062c-.027.036-.071.049-.093.036-.027-.018-.138-.031-.253-.036a1.467 1.467 0 0 1-.462-.129c-.249-.111-.267-.116-.373-.044-.133.089-.507.151-.573.098a.65.65 0 0 0-.231-.062c-.16-.018-.182-.013-.156.053.022.058.009.067-.049.044-.044-.018-.067-.013-.049.013.053.084-.022.138-.124.08-.116-.062-.342-.08-.342-.027 0 .067-.244.036-.422-.053a.968.968 0 0 0-.822.013.944.944 0 0 0-.182.133c-.018.022-.04.018-.058-.009-.049-.076-.151-.058-.289.044-.12.089-.258.084-.204-.009.018-.022.004-.04-.027-.04s-.102-.044-.156-.093c-.098-.089-.111-.093-.209-.027-.093.058-.124.062-.227.009-.062-.036-.156-.053-.204-.044s-.098 0-.111-.027c-.018-.022-.049-.04-.076-.04s-.036.013-.022.031c.018.013-.049.062-.147.107-.111.049-.169.102-.156.138.022.058-.342.36-.444.369a1.692 1.692 0 0 0-.378.16c-.169.098-.369.169-.409.147-.022-.018-.036-.067-.022-.111.018-.071-.004-.084-.147-.084-.093 0-.191-.031-.222-.067-.067-.08-.204-.089-.236-.013-.018.044-.027.044-.027 0-.004-.027-.027-.053-.058-.053-.027 0-.036.013-.022.031.049.044-.058.147-.151.147a.422.422 0 0 1-.178-.058c-.076-.044-.098-.04-.147.022-.062.084-.16.107-.16.04 0-.022.022-.049.053-.058.093-.031.004-.164-.093-.138-.053.013-.093.04-.093.062s-.022.04-.049.04c-.027 0-.031-.022-.009-.058.062-.102.058-.2-.022-.231a.472.472 0 0 0-.409 0c-.129.067-.28.058-.378-.022a1.077 1.077 0 0 0-.28-.111c-.191-.058-.249-.062-.373-.009-.28.111-.564.044-.569-.129 0-.031-.084-.062-.187-.076-.169-.018-.204-.004-.307.107-.062.071-.138.129-.164.129-.031 0-.076.049-.102.107-.044.093-.08.107-.258.102-.156-.009-.204.009-.204.058 0 .036-.018.08-.044.098-.053.04-.156-.044-.156-.124 0-.036-.049-.084-.107-.111-.12-.058-.293.013-.293.116 0 .036-.022.067-.053.067a.227.227 0 0 0-.12.062c-.044.04-.191.071-.36.08-.276.013-.289.009-.28-.089.022-.169-.156-.2-.413-.076-.218.111-.444.142-.471.071-.022-.053-.347-.107-.347-.053 0 .044-.298.031-.347-.018-.018-.013 0-.044.036-.071.044-.027.013-.036-.107-.022a.529.529 0 0 0-.316.16l-.147.142-.102-.102c-.093-.093-.093-.102-.018-.129.08-.027.08-.031.004-.058a.167.167 0 0 0-.151.022c-.053.044-.071.044-.084.004-.018-.044-.04-.044-.107 0-.062.036-.098.04-.12.004a.275.275 0 0 0-.111-.076c-.04-.018-.076-.044-.071-.062.018-.093-.013-.142-.098-.169-.067-.022-.08-.044-.044-.08.027-.027.049-.098.049-.156 0-.093-.018-.107-.133-.089-.076.013-.133.004-.133-.018s-.018-.031-.04-.018c-.022.018-.049.004-.058-.018-.009-.027-.058-.053-.116-.058-.053 0-.098-.027-.098-.053-.004-.022-.036.009-.071.076-.036.071-.089.129-.12.133-.031 0-.071.009-.098.009a.239.239 0 0 0-.089.036c-.027.018-.249.049-.489.076-.378.044-.48.04-.68-.018-.227-.071-.244-.067-.413.018a.827.827 0 0 1-.329.093c-.08 0-.164.022-.178.044-.044.071-.453.027-.547-.053a.449.449 0 0 0-.209-.093c-.307-.062-.467-.071-.467-.036 0 .018-.062.036-.142.04-.076 0-.151.027-.169.053-.062.102-.244 0-.32-.178-.058-.138-.098-.178-.178-.178a.341.341 0 0 1-.204-.093c-.089-.08-.107-.084-.169-.022a.241.241 0 0 1-.147.071c-.111 0-.173.084-.173.236.004.182-.12.293-.293.271a.292.292 0 0 0-.249.071c-.058.049-.138.089-.182.089s-.133.022-.196.053a.223.223 0 0 1-.213 0c-.053-.027-.182-.08-.284-.124s-.178-.098-.16-.12c.049-.076-.316-.009-.409.08-.053.049-.089.102-.084.116.009.013-.009.027-.04.031s-.151.027-.276.049c-.12.022-.253.022-.289.004-.111-.058-.249.027-.4.24-.129.191-.151.204-.329.204-.129 0-.204-.022-.218-.062-.031-.084-.209-.04-.209.049 0 .058-.04.062-.209.04-.307-.044-.516-.036-.48.022.036.053-.156.08-.213.027-.107-.102-.28-.164-.542-.182-.147-.013-.271-.044-.28-.071-.009-.022-.044-.044-.08-.044s-.062-.018-.062-.04c0-.058-.236-.036-.289.027-.036.044-.071.044-.173-.009a.963.963 0 0 0-.2-.084 1.218 1.218 0 0 1-.324-.12c-.044-.022-.107-.04-.142-.04s-.071-.027-.084-.062c-.013-.031-.076-.062-.142-.062-.178 0-.258-.107-.284-.378-.004-.018-.036-.031-.071-.031-.062 0-.058.013.004.111.04.062.067.12.058.129s-.111.009-.227-.004c-.218-.027-.249-.071-.111-.196.093-.089.093-.129 0-.196-.076-.058-.249-.04-.213.022.013.022.009.067-.004.107-.031.084-.222.093-.271.013a1.002 1.002 0 0 0-.204-.182c-.147-.116-.182-.12-.338-.08-.142.036-.196.027-.298-.04-.12-.076-.124-.076-.28.031-.173.116-.289.133-.476.062-.084-.031-.133-.031-.178.004-.036.031-.138.04-.24.027-.236-.031-.516.08-.551.213-.027.098-.036.102-.48.084a8.422 8.422 0 0 1-.569-.036c-.062-.004-.156-.018-.213-.018-.058-.004-.089-.031-.076-.053.013-.027.009-.044-.013-.044s-.062-.049-.089-.111c-.031-.067-.076-.098-.116-.084-.036.013-.076.004-.093-.022-.013-.027-.044-.049-.071-.049-.022 0-.04 3.938-.04 10.422v10.422h56.889l-.009-9.947-.013-9.942-.333-.004c-.427 0-.533-.036-.644-.209-.093-.147-.182-.178-.556-.178-.182 0-.218-.018-.324-.169a.68.68 0 0 1-.12-.213.847.847 0 0 0-.116-.213c-.111-.164-.12-.169-.378-.169-.209 0-.28-.018-.311-.08-.058-.098-.08-.093-.24.036zm-8.422.827c0 .022-.018.04-.044.04-.022 0-.044-.031-.044-.071 0-.036.022-.053.044-.04a.082.082 0 0 1 .044.071zm-.231.035c.013.036-.004.053-.04.04a.127.127 0 0 1-.076-.076c-.013-.036.004-.053.04-.04a.127.127 0 0 1 .076.076zm-31.058.027c0 .076-.098.129-.182.102-.036-.013-.027-.04.022-.093.098-.093.16-.098.16-.009z"/><path d="M18.831 11.409c-.053.049-.036.084.053.089.049.004.098-.022.111-.058.027-.062-.107-.089-.164-.031zm-.222.129c-.018.018-.031.062-.031.102 0 .049.013.053.049.018.027-.027.044-.071.031-.102-.009-.027-.031-.036-.049-.018zm.147.089c0 .036.022.053.044.04.027-.018.036-.049.022-.071-.04-.062-.067-.049-.067.031zm.2.013c-.044.138.013.267.111.258.084-.004.133-.164.049-.164-.022 0-.036-.031-.031-.071.009-.111-.093-.124-.129-.022zm36.2-.067c0 .009.031.031.071.044.036.013.053.009.04-.018-.027-.044-.111-.062-.111-.027zm-35.943.089c0 .036.027.053.062.04.031-.013.044-.04.031-.062-.036-.062-.093-.049-.093.022zm-9.924.045c0 .009.031.04.067.071.058.049.062.044.04-.018s-.107-.102-.107-.053zm5.444.026c.013.022.036.044.049.044.009 0 .018-.022.018-.044 0-.027-.022-.044-.049-.044-.022 0-.031.018-.018.044zm-5.489.129c0 .053.022.093.044.093.027 0 .044-.027.044-.062s-.018-.08-.044-.093c-.022-.013-.044.013-.044.062zm9.423.094c0 .022.022.044.044.044a.044.044 0 0 0 .044-.044c0-.027-.018-.044-.044-.044a.044.044 0 0 0-.044.044zm18.022-.005c-.036.062.124.138.196.093a.064.064 0 0 0 .031-.084c-.04-.058-.191-.067-.227-.009zm.227.213c.022.022.053.053.071.08s.036.009.036-.036a.075.075 0 0 0-.076-.076c-.04 0-.053.013-.031.031zm-28.009.178c.009.04.036.084.062.093s.036-.022.022-.076c-.027-.111-.098-.124-.084-.018z"/></symbol></defs></svg>